<?xml version="1.0" encoding="UTF-8"?>
<svg id="Layer_1" data-name="Layer 1" xmlns="http://www.w3.org/2000/svg" viewBox="0 0 187 199">
  <defs>
    <style>
      .cls-1 {
        fill: #010101;
        stroke-width: 0px;
      }
    </style>
  </defs>
  <path class="cls-1" d="m68.18,62.91c-7.31,2.93-13,11.51-13,19.33,0,10.34,7.02,15.36,17.11,20.6.43.22.88.45,1.33.68,5.03,2.6,8.83,4.79,11.52,7.12,3.6,3.09,5.24,6.43,5.24,11.31,0,3.93-1.26,7.01-3.5,9.17-2.51,2.43-6.29,3.7-10.94,3.77-.69.06-1.38.04-2.06-.06-.6-.05-1.19-.13-1.75-.23-.62-.09-1.23-.23-1.81-.44-.56-.17-1.11-.37-1.63-.61-6.82-3-10.42-10.89-13.6-21.89-.1-.39-.49-.69-.89-.69-.49,0-.88.39-.88.98,0,.39,0,.59.1,1.28.29,2.15.69,6.37.69,10.39s-.3,6.96-1.38,10.79c-.29.98-.29,1.27-.29,1.47,0,.59.39.88.78.88s.69-.2.89-.59c.98-1.76,2.25-1.86,3.23-1.86,1.17,0,2.45.19,3.83.48.82.17,1.67.38,2.54.6.67.15,1.37.31,2.1.47,2.48.53,5.29,1,8.4,1,3.48,0,6.62-.46,9.42-1.29,1.69-.49,3.25-1.13,4.69-1.88.04-.03.08-.06.12-.08.08-.04.16-.08.24-.12.25-.14.5-.26.73-.41,7.19-4.22,10.88-11.5,10.88-19.07,0-10.5-5.47-14.99-15.15-19.87-1.16-.59-2.39-1.19-3.68-1.8-3.51-1.66-6.64-3.18-9.17-4.91-4.03-2.76-6.52-6.06-6.52-11.37,0-4.48,1.51-7.85,4.02-9.99.46-.31,1.05-.21,1.72.37.92.8.63,2.68.63,4.86v13.57c0,.34.16.67.43.87,1.19.87,3.52,2.25,3.91,2.46,1.72.91,4.34,2.25,6.98,3.38.72.31,1.52-.22,1.52-1.01v-25.54c0-.6.49-1.09,1.09-1.09h3.91c2.41,0,4.69.21,6.84.62,14.69,2.77,23.27,14.82,23.27,33.22s-7.74,35.51-24.03,35.51c-.05,0-2.99,0-3.05,0,.63.48.34,1.85,4.41,1.85,22.4,0,37.39-17.43,37.39-39.81,0-20.12-14.42-32.57-37.81-33.56-.41-.03-.82-.03-1.23-.04-.17,0-.34,0-.5-.02-.45-.02-.9-.02-1.36-.02-2.69,0-5.07.05-8.1.15-1.17.04-2.45.09-3.87.14-3.24.11-12.14.93-13.22.86"/>
</svg>